<?xml version="1.0" encoding="UTF-8"?>
<svg width="160px" height="39px" viewBox="0 0 160 39" version="1.1" xmlns="http://www.w3.org/2000/svg" xmlns:xlink="http://www.w3.org/1999/xlink">
    <!-- Generator: Sketch 48.2 (47327) - http://www.bohemiancoding.com/sketch -->
    <title>rc-logo</title>
    <desc>Created with Sketch.</desc>
    <defs></defs>
    <g id="Page-1" stroke="none" stroke-width="1" fill="none" fill-rule="evenodd">
        <g id="rc-logo" fill-rule="nonzero">
            <path d="M36.7589882,20.8681422 C36.7589882,27.0256204 40.0086341,32.4276325 44.8949748,35.4736419 C49.7815852,32.4276325 53.0312311,27.0256204 53.0312311,20.8681422 C53.0312311,14.710664 49.7815852,9.30892018 44.8949748,6.2629108 C40.0086341,9.30892018 36.7589882,14.710664 36.7589882,20.8681422" id="Fill-1" fill="#559D85"></path>
            <path d="M18.3794941,20.8681422 C18.3794941,27.0256204 21.62914,32.4276325 26.5154805,35.4736419 C31.4020911,32.4276325 34.651737,27.0256204 34.651737,20.8681422 C34.651737,14.710664 31.4020911,9.30892018 26.5154805,6.2629108 C21.62914,9.30892018 18.3794941,14.710664 18.3794941,20.8681422" id="Fill-2" fill="#864579"></path>
            <path d="M18.3794941,20.8681422 C18.3794941,14.710664 21.62914,9.30892018 26.5154805,6.2629108 C23.851602,4.60228035 20.7017876,3.64131456 17.3258685,3.64131456 C7.75716695,3.64131456 0,11.3539906 0,20.8681422 C0,30.3822938 7.75716695,38.0952381 17.3258685,38.0952381 C20.7017876,38.0952381 23.851602,37.1342723 26.5154805,35.4736419 C21.62914,32.4276325 18.3794941,27.0256204 18.3794941,20.8681422" id="Fill-3" fill="#E05077"></path>
            <path d="M54.0848567,3.64131456 C50.7086677,3.64131456 47.5588533,4.60228035 44.8949748,6.2629108 C49.7815852,9.30892018 53.0312311,14.710664 53.0312311,20.8681422 C53.0312311,27.0256204 49.7815852,32.4276325 44.8949748,35.4736419 C47.5588533,37.1342723 50.7086677,38.0952381 54.0848567,38.0952381 C63.6535582,38.0952381 71.4107252,30.3822938 71.4107252,20.8681422 C71.4107252,11.3539906 63.6535582,3.64131456 54.0848567,3.64131456" id="Fill-4" fill="#9CCB81"></path>
            <path d="M88.5067116,8.83943662 C88.2018213,8.76378269 87.8443171,8.68437291 87.4331197,8.60093897 C87.0219224,8.5177733 86.5799663,8.47592219 86.1083305,8.47592219 C85.8946374,8.47592219 85.6399325,8.4952381 85.3428667,8.53279678 C85.0460709,8.57062374 84.8210455,8.61220657 84.66914,8.65754526 L84.66914,17.7880617 L81.2654299,17.7880617 L81.2654299,6.47726359 C81.8744014,6.26532529 82.5939966,6.06492286 83.4242159,5.8752515 C84.2538955,5.68611669 85.1790894,5.59141516 86.1995278,5.59141516 C86.3821923,5.59141516 86.6029006,5.60268276 86.8619224,5.62548625 C87.1206746,5.64828974 87.3794266,5.67860497 87.6387183,5.71643192 C87.8974705,5.75425888 88.1562226,5.79986586 88.4152445,5.8527163 C88.6739966,5.90583502 88.8949748,5.96995305 89.0776392,6.04560698 L88.5067116,8.83943662" id="Fill-5" fill="#FFFFFF"></path>
            <path d="M90.9050927,17.7880617 L94.3085329,17.7880617 L94.3085329,5.84118042 L90.9050927,5.84118042 L90.9050927,17.7880617 Z M94.6285329,2.38900067 C94.6285329,3.01006036 94.4264418,3.49832328 94.0230691,3.85405768 C93.6194266,4.20979209 93.1437437,4.38765929 92.5954805,4.38765929 C92.0472175,4.38765929 91.5709949,4.20979209 91.1678921,3.85405768 C90.7642496,3.49832328 90.5624283,3.01006036 90.5624283,2.38900067 C90.5624283,1.76820925 90.7642496,1.27994635 91.1678921,0.923943662 C91.5709949,0.568477531 92.0472175,0.390342053 92.5954805,0.390342053 C93.1437437,0.390342053 93.6194266,0.568477531 94.0230691,0.923943662 C94.4264418,1.27994635 94.6285329,1.76820925 94.6285329,2.38900067 Z" id="Fill-6" fill="#FFFFFF"></path>
            <path d="M96.4783811,11.8146211 C96.4783811,10.9515761 96.6189545,10.137894 96.9009106,9.37303823 C97.182597,8.60871898 97.589747,7.94232059 98.1231703,7.37437961 C98.6560539,6.80670691 99.3030691,6.35627096 100.064756,6.02307177 C100.825902,5.69014085 101.693895,5.52327298 102.668735,5.52327298 C103.308196,5.52327298 103.894503,5.58014755 104.427656,5.69362843 C104.96054,5.80710932 105.478314,5.96995305 105.980978,6.18189135 L105.272715,8.88477531 C104.952985,8.76378269 104.602496,8.65754526 104.222057,8.56686787 C103.841079,8.47592219 103.414772,8.4305835 102.942867,8.4305835 C101.937808,8.4305835 101.187454,8.74097922 100.692884,9.36177062 C100.197774,9.98283031 99.9503541,10.8002683 99.9503541,11.8146211 C99.9503541,12.8898726 100.182395,13.7226023 100.647015,14.3130785 C101.111636,14.9035547 101.922428,15.1989269 103.079932,15.1989269 C103.49113,15.1989269 103.932546,15.1613682 104.404722,15.0851777 C104.876627,15.0097921 105.310759,14.8885312 105.706846,14.7219316 L106.186577,17.4929577 C105.790489,17.6595573 105.295649,17.8030851 104.701788,17.9243461 C104.107926,18.0453387 103.452816,18.1059692 102.737268,18.1059692 C101.640742,18.1059692 100.696391,17.9431255 99.9047555,17.6177062 C99.11285,17.2922871 98.4617876,16.8493629 97.9518382,16.2889336 C97.441349,15.7290409 97.0681957,15.0663984 96.8323778,14.3018109 C96.5960203,13.5372233 96.4783811,12.7082495 96.4783811,11.8146211" id="Fill-7" fill="#FFFFFF"></path>
            <path d="M108.01403,17.7880617 L108.01403,0.708249496 L111.41747,0.163112006 L111.41747,5.8867874 C111.646003,5.81113347 111.939022,5.73896713 112.296796,5.67082494 C112.65457,5.60268276 113.001282,5.56887994 113.336391,5.56887994 C114.310691,5.56887994 115.121484,5.70140846 115.769039,5.96619718 C116.416054,6.23125419 116.934098,6.60603622 117.322361,7.09054325 C117.710624,7.57531858 117.984756,8.15050302 118.144756,8.81663313 C118.304486,9.48303153 118.384621,10.2248156 118.384621,11.0425218 L118.384621,17.7880617 L114.980911,17.7880617 L114.980911,11.4513749 C114.980911,10.3610999 114.840068,9.58873239 114.558381,9.13454057 C114.276425,8.68034875 113.754874,8.4531187 112.993727,8.4531187 C112.688836,8.4531187 112.403373,8.47967806 112.137066,8.53279678 C111.870489,8.58591549 111.630624,8.64279008 111.41747,8.70315224 L111.41747,17.7880617 L108.01403,17.7880617" id="Fill-8" fill="#FFFFFF"></path>
            <path d="M80.6945026,30.5110664 C80.6945026,29.6477531 80.8350758,28.8340712 81.1170321,28.0692152 C81.3987183,27.304896 81.8058685,26.6384977 82.3390219,26.0705566 C82.8719055,25.502884 83.5191906,25.052448 84.280877,24.7192488 C85.0420236,24.3863179 85.9100169,24.2194501 86.8848567,24.2194501 C87.5243171,24.2194501 88.1103541,24.2763246 88.6437774,24.3900738 C89.176661,24.5035546 89.694435,24.6663983 90.1970994,24.8780684 L89.4888364,27.5809524 C89.1691063,27.4599598 88.8186171,27.3537224 88.4381787,27.2630449 C88.0572006,27.1720992 87.6308937,27.1267605 87.1589882,27.1267605 C86.1539291,27.1267605 85.403575,27.4371563 84.9090051,28.0579477 C84.4138955,28.6790074 84.1664756,29.4967136 84.1664756,30.5110664 C84.1664756,31.5863179 84.398516,32.4187793 84.8631366,33.0092555 C85.3274874,33.5997317 86.1385498,33.895104 87.2960539,33.895104 C87.7072512,33.895104 88.1486677,33.8575453 88.6208431,33.781623 C89.0927488,33.7059692 89.5266104,33.5849765 89.9229679,33.4181086 L90.4026982,36.1891348 C90.0063406,36.3557344 89.5117707,36.4992622 88.9179089,36.6205231 C88.3237774,36.7415157 87.6689376,36.8021463 86.9533896,36.8021463 C85.8568634,36.8021463 84.9125126,36.6393026 84.120877,36.3138833 C83.3289713,35.9884642 82.6779089,35.54554 82.1676898,34.9853789 C81.6574705,34.425218 81.2843171,33.7625754 81.0484992,32.997988 C80.8121417,32.2334004 80.6945026,31.4044265 80.6945026,30.5110664" id="Fill-9" fill="#FFFFFF"></path>
            <path d="M99.425565,30.4882629 C99.425565,29.4433266 99.2161888,28.6221327 98.7974368,28.0238766 C98.3784148,27.4258886 97.7810455,27.1267605 97.0042496,27.1267605 C96.2277234,27.1267605 95.626037,27.4258886 95.1997301,28.0238766 C94.7731535,28.6221327 94.5602699,29.4433266 94.5602699,30.4882629 C94.5602699,31.5329309 94.7731535,32.3619048 95.1997301,32.9751845 C95.626037,33.5884642 96.2277234,33.895104 97.0042496,33.895104 C97.7810455,33.895104 98.3784148,33.5884642 98.7974368,32.9751845 C99.2161888,32.3619048 99.425565,31.5329309 99.425565,30.4882629 Z M102.897808,30.4882629 C102.897808,31.42723 102.760742,32.2862508 102.48661,33.0661301 C102.212479,33.8460094 101.816391,34.5121394 101.298887,35.0647887 C100.780843,35.6177062 100.16027,36.0453387 99.4371669,36.3479544 C98.7135244,36.6508384 97.9027319,36.8021463 97.0042496,36.8021463 C96.120877,36.8021463 95.3176392,36.6508384 94.5945362,36.3479544 C93.8708937,36.0453387 93.2503205,35.6177062 92.7328162,35.0647887 C92.2147724,34.5121394 91.8111299,33.8460094 91.5221585,33.0661301 C91.2326476,32.2862508 91.088027,31.42723 91.088027,30.4882629 C91.088027,29.549564 91.2366947,28.6940308 91.5334907,27.9216632 C91.8302866,27.149564 92.2417538,26.4906773 92.7670827,25.9458082 C93.2924114,25.4006706 93.9167622,24.9767941 94.6401349,24.6739101 C95.3632378,24.3710261 96.1513659,24.2194501 97.0042496,24.2194501 C97.8725126,24.2194501 98.6679258,24.3710261 99.3912984,24.6739101 C100.114401,24.9767941 100.735244,25.4006706 101.253019,25.9458082 C101.770523,26.4906773 102.174435,27.149564 102.463676,27.9216632 C102.752917,28.6940308 102.897808,29.549564 102.897808,30.4882629 Z" id="Fill-10" fill="#FFFFFF"></path>
            <path d="M105.067656,24.9464789 C105.646408,24.7798793 106.392445,24.6248155 107.306307,24.4807512 C108.219899,24.3369551 109.179359,24.2650571 110.184418,24.2650571 C111.204587,24.2650571 112.053693,24.3975855 112.731467,24.6623742 C113.408971,24.9274313 113.945632,25.3022133 114.34199,25.7867203 C114.737538,26.2714956 115.019224,26.8466801 115.187049,27.5128102 C115.354334,28.1792085 115.438246,28.9209926 115.438246,29.7386988 L115.438246,36.4842388 L112.034806,36.4842388 L112.034806,30.147552 C112.034806,29.057277 111.889916,28.2851778 111.600675,27.8307177 C111.311164,27.3765259 110.770455,27.149564 109.97882,27.149564 C109.735177,27.149564 109.476425,27.1608317 109.202293,27.1836352 C108.928162,27.2061704 108.68425,27.2329979 108.471366,27.2630449 L108.471366,36.4842388 L105.067656,36.4842388 L105.067656,24.9464789" id="Fill-11" fill="#FFFFFF"></path>
            <path d="M117.950759,21.5621731 L121.354199,21.0170356 L121.354199,24.5376258 L125.443238,24.5376258 L125.443238,27.3537224 L121.354199,27.3537224 L121.354199,31.5557344 C121.354199,32.2674715 121.479932,32.8354124 121.73113,33.2590208 C121.982597,33.6831657 122.488499,33.895104 123.250185,33.895104 C123.615784,33.895104 123.992715,33.8610328 124.380978,33.7928907 C124.769241,33.7247485 125.123238,33.6303153 125.443238,33.5090543 L125.922698,36.1435278 C125.511771,36.3103957 125.054705,36.4541918 124.55231,36.5751845 C124.049646,36.6961771 123.43285,36.7568075 122.701922,36.7568075 C121.772951,36.7568075 121.00371,36.632059 120.395008,36.3820254 C119.785767,36.1322603 119.298482,35.7840375 118.932884,35.3373574 C118.567555,34.8909457 118.31231,34.3492958 118.16769,33.7132126 C118.022799,33.0773978 117.950759,32.3734406 117.950759,31.6010731 L117.950759,21.5621731" id="Fill-12" fill="#FFFFFF"></path>
            <path d="M134.717302,29.3070423 C134.701922,29.0197182 134.652277,28.7393696 134.568634,28.4668008 C134.484992,28.1942321 134.355211,27.9522469 134.180371,27.7400402 C134.005261,27.5281019 133.784283,27.3537224 133.517976,27.2177062 C133.2514,27.0814219 132.920068,27.0130114 132.52425,27.0130114 C132.143541,27.0130114 131.816256,27.0779343 131.542125,27.2061704 C131.267993,27.3349429 131.03946,27.5052984 130.856796,27.7172367 C130.673862,27.9294434 130.533019,28.1754526 130.434267,28.4555333 C130.334975,28.7358819 130.262934,29.0197182 130.217066,29.3070423 L134.717302,29.3070423 Z M126.722158,30.6017438 C126.722158,29.5420523 126.885666,28.6143528 127.213491,27.8194501 C127.540506,27.0245474 127.97059,26.3624413 128.504014,25.832059 C129.036897,25.3022133 129.649646,24.9008719 130.342799,24.6283031 C131.035683,24.3557344 131.747723,24.2194501 132.478651,24.2194501 C134.183879,24.2194501 135.531602,24.7382964 136.521821,25.7751845 C137.511501,26.8126089 138.00661,28.3382964 138.00661,30.3519785 C138.00661,30.5488934 137.998786,30.7645876 137.983676,30.9993294 C137.968297,31.2340712 137.952917,31.4419852 137.938078,31.6238766 L130.217066,31.6238766 C130.293154,32.3205902 130.620438,32.8729711 131.19946,33.2818243 C131.777943,33.6906773 132.554739,33.895104 133.529309,33.895104 C134.153659,33.895104 134.766408,33.8382293 135.368094,33.7247485 C135.969781,33.6112677 136.460573,33.4712274 136.841551,33.3046278 L137.298347,36.0528504 C137.115683,36.1435278 136.872041,36.2344734 136.56742,36.3251509 C136.26253,36.4160966 135.923912,36.4957746 135.551029,36.5636486 C135.177605,36.632059 134.77801,36.6886653 134.351703,36.7342723 C133.925126,36.779611 133.49855,36.8021463 133.072513,36.8021463 C131.991096,36.8021463 131.050793,36.6433266 130.251332,36.3251509 C129.451872,36.0072434 128.789477,35.5723675 128.264148,35.0194501 C127.73882,34.4668008 127.350287,33.8119383 127.099089,33.0545943 C126.847892,32.2977867 126.722158,31.4800805 126.722158,30.6017438 Z" id="Fill-13" fill="#FFFFFF"></path>
            <path d="M144.937875,27.8865192 L147.326273,24.5376258 L150.844115,24.5376258 L146.673862,30.3468812 C147.629815,31.4384977 148.478381,32.5231389 149.220641,33.6013414 C149.962091,34.6792756 150.556762,35.6405097 151.004115,36.4842388 L147.353794,36.4842388 C147.22968,36.2564722 147.076425,35.9720992 146.89403,35.6313883 C146.711366,35.2906773 146.506307,34.9344064 146.278044,34.5633803 C146.049781,34.1920858 145.811535,33.877666 145.563035,33.6201207 C145.314806,33.3623072 145.070084,33.1281019 144.82914,32.9172367 C144.598718,33.1133467 144.364789,33.330114 144.126813,33.5672702 C143.889376,33.8046949 143.663271,34.1008719 143.449309,34.4560698 C143.235076,34.8112677 143.02489,35.1627096 142.818482,35.5103957 C142.612344,35.8583502 142.4286,36.1826962 142.2686,36.4842388 L138.806071,36.4842388 C138.997369,36.1116029 139.249916,35.665996 139.56425,35.1471496 C139.878044,34.6283031 140.222327,34.0930918 140.597099,33.5415157 C140.971872,32.9902078 141.376863,32.4541918 141.812614,31.934004 C142.248364,31.4138162 142.67656,30.925285 143.096121,30.468947 C142.349005,29.4135479 141.631029,28.3994635 140.941922,27.4256204 C140.252277,26.4517774 139.570995,25.4894702 138.897268,24.5376258 L142.57511,24.5376258 L144.937875,27.8865192" id="Fill-14" fill="#FFFFFF"></path>
            <path d="M151.803305,21.5621731 L155.206746,21.0170356 L155.206746,24.5376258 L159.295514,24.5376258 L159.295514,27.3537224 L155.206746,27.3537224 L155.206746,31.5557344 C155.206746,32.2674715 155.332478,32.8354124 155.583677,33.2590208 C155.834874,33.6831657 156.341045,33.895104 157.102732,33.895104 C157.468061,33.895104 157.844992,33.8610328 158.233524,33.7928907 C158.621787,33.7247485 158.975784,33.6303153 159.295514,33.5090543 L159.775244,36.1435278 C159.364047,36.3103957 158.907252,36.4541918 158.404587,36.5751845 C157.902193,36.6961771 157.285396,36.7568075 156.554469,36.7568075 C155.625498,36.7568075 154.856256,36.632059 154.247285,36.3820254 C153.638043,36.1322603 153.150758,35.7840375 152.785429,35.3373574 C152.419831,34.8909457 152.164587,34.3492958 152.020236,33.7132126 C151.875346,33.0773978 151.803305,32.3734406 151.803305,31.6010731 L151.803305,21.5621731" id="Fill-15" fill="#FFFFFF"></path>
            <path d="M36.7589882,20.8681422 C36.7589882,14.710664 40.0086341,9.30892018 44.8949748,6.2629108 C42.2310961,4.60228035 39.0812817,3.64131456 35.7053626,3.64131456 C32.3291736,3.64131456 29.1793592,4.60228035 26.5154805,6.2629108 C31.4020911,9.30892018 34.651737,14.710664 34.651737,20.8681422 C34.651737,27.0256204 31.4020911,32.4276325 26.5154805,35.4736419 C29.1793592,37.1342723 32.3291736,38.0952381 35.7053626,38.0952381 C39.0812817,38.0952381 42.2310961,37.1342723 44.8949748,35.4736419 C40.0086341,32.4276325 36.7589882,27.0256204 36.7589882,20.8681422" id="Fill-16" fill="#6EBFDE"></path>
        </g>
    </g>
</svg>